<?xml version="1.0" standalone="no"?>
<!DOCTYPE svg PUBLIC "-//W3C//DTD SVG 20010904//EN"
 "http://www.w3.org/TR/2001/REC-SVG-20010904/DTD/svg10.dtd">
<svg version="1.0" xmlns="http://www.w3.org/2000/svg"
 width="500.000000pt" height="500.000000pt" viewBox="0 0 500.000000 500.000000"
 preserveAspectRatio="xMidYMid meet">
<metadata>
Created by potrace 1.16, written by Peter Selinger 2001-2019
</metadata>
<g transform="translate(0.000000,500.000000) scale(0.100000,-0.100000)"
fill="#000000" stroke="none">
<path d="M1671 4406 c-10 -12 -5 -20 26 -42 21 -15 52 -41 70 -57 l31 -29
1216 1 c668 0 1221 -1 1228 -4 11 -4 13 -196 13 -1013 l0 -1007 -42 -3 -43 -3
-2 941 -3 942 -33 29 -32 29 -1120 0 c-889 0 -1120 -3 -1120 -12 0 -7 10 -41
23 -75 l22 -62 1055 -1 c580 0 1056 -3 1059 -6 7 -7 9 -1389 3 -1611 l-5 -163
-59 0 c-55 0 -59 1 -58 23 6 65 -18 103 -71 114 -16 3 -29 11 -29 17 -1 6 -8
-1 -16 -16 l-15 -28 -229 0 c-202 0 -230 2 -238 16 -15 26 -75 10 -107 -28
-22 -25 -25 -38 -20 -67 l6 -36 -571 3 c-643 3 -580 11 -559 -78 20 -88 -96
-80 1126 -80 l1083 0 0 -40 0 -40 -1078 0 c-737 0 -1081 -3 -1088 -10 -11 -11
2 -91 19 -117 6 -9 38 -13 104 -13 l96 0 -6 -67 c-3 -38 -13 -124 -23 -193
-10 -69 -18 -155 -18 -192 -1 -37 -5 -64 -10 -60 -5 3 -7 -5 -4 -16 4 -12 2
-25 -3 -28 -5 -3 -8 -20 -8 -37 l2 -32 7 35 c13 59 11 2 -5 -150 -38 -377 -45
-490 -32 -510 16 -26 39 -33 85 -25 37 6 38 8 40 48 2 23 9 105 17 182 8 77
15 146 15 153 0 18 1496 18 1503 0 4 -10 6 -10 6 0 1 6 14 12 30 12 33 0 32 3
51 -190 19 -195 31 -219 100 -208 43 6 58 44 50 123 -5 39 -13 117 -19 175 -6
58 -16 139 -21 180 -6 41 -15 118 -20 170 -5 52 -12 113 -15 135 -2 22 -9 83
-15 135 -14 115 -27 225 -36 303 l-7 57 159 0 c175 0 202 8 241 67 17 26 18
86 18 1199 0 1169 0 1173 -21 1200 -11 15 -33 37 -48 48 -27 21 -32 21 -1335
24 -1121 2 -1310 0 -1320 -12z m2177 -2643 c7 -65 12 -128 12 -140 l0 -23
-716 0 -717 0 7 63 c10 92 12 117 14 170 l2 47 693 0 693 0 12 -117z m42 -330
c0 -10 7 -74 15 -143 11 -97 12 -126 2 -132 -15 -9 -1506 -7 -1512 2 -5 8 13
228 21 268 l4 22 735 0 c693 0 735 -1 735 -17z"/>
<path d="M1330 4355 c-79 -22 -134 -52 -181 -102 -79 -82 -100 -127 -119 -243
-15 -101 25 -231 97 -311 l34 -37 -68 -22 c-97 -32 -149 -64 -218 -134 -89
-89 -105 -131 -175 -441 -38 -171 -68 -298 -80 -345 -5 -19 -18 -73 -29 -120
-11 -47 -28 -117 -37 -155 -19 -82 -20 -135 -3 -167 19 -38 52 -69 88 -84 98
-41 195 22 215 141 11 62 144 656 155 690 7 21 9 -18 7 -135 -3 -153 -9 -206
-50 -400 -3 -14 -22 -108 -41 -210 -20 -102 -40 -201 -45 -220 -5 -19 -14 -62
-20 -95 -6 -33 -15 -78 -20 -100 -32 -149 -42 -223 -31 -244 11 -19 20 -21
111 -21 88 0 99 -2 105 -19 3 -11 3 -170 0 -354 -6 -397 1 -498 42 -560 39
-58 120 -99 185 -93 26 3 61 12 79 22 39 19 89 73 89 94 1 10 7 7 21 -10 45
-57 74 -80 122 -96 95 -32 201 16 246 111 21 45 22 56 21 466 l0 419 22 9 c13
4 59 9 103 10 44 1 86 7 93 14 15 12 12 77 -7 167 -5 25 -14 72 -21 105 -22
111 -28 140 -40 195 -6 30 -13 66 -16 80 -5 25 -18 93 -35 180 -5 25 -17 86
-28 135 -58 275 -62 300 -63 448 -1 81 1 149 4 152 3 3 38 -50 78 -117 77
-131 117 -180 164 -203 38 -20 130 -19 171 1 30 14 185 158 437 405 98 96 98
96 98 145 l0 50 239 232 c132 128 246 245 254 261 13 26 12 29 -15 54 -15 15
-32 27 -36 28 -4 0 -16 2 -26 4 -13 3 -79 -55 -228 -201 -132 -130 -213 -202
-221 -198 -6 4 -9 3 -4 -1 4 -5 -7 -23 -24 -41 -28 -28 -35 -31 -58 -23 -29
12 -86 4 -113 -15 -10 -7 -93 -85 -184 -172 -92 -87 -170 -160 -174 -162 -10
-4 -46 53 -120 190 -106 197 -176 268 -319 323 l-70 26 40 52 c52 69 69 107
82 183 48 280 -217 532 -483 459z m68 -137 c9 -9 12 -9 12 1 0 9 9 11 30 7 17
-3 44 -9 60 -12 44 -8 126 -77 151 -126 27 -53 36 -144 19 -202 -50 -178 -302
-236 -431 -99 -22 23 -46 61 -54 84 -22 61 -18 165 8 218 41 84 170 164 205
129z m262 -711 c0 -4 4 -6 9 -2 5 3 34 -4 64 -15 71 -27 139 -95 196 -196 24
-44 77 -136 118 -206 112 -190 122 -190 327 1 71 66 134 117 139 114 6 -3 7
-1 4 4 -4 6 21 37 55 69 41 40 63 54 66 45 3 -8 -29 -46 -74 -89 -44 -42 -135
-130 -204 -197 -149 -145 -174 -165 -199 -158 -31 8 -49 33 -166 241 -93 163
-118 200 -148 217 -50 27 -103 13 -129 -35 -18 -33 -19 -52 -14 -299 l6 -263
95 -477 c53 -262 99 -486 102 -498 l5 -23 -482 0 c-455 0 -482 1 -475 18 4 9
10 40 15 67 5 28 14 73 20 100 5 28 13 64 16 80 3 17 9 48 14 70 5 22 21 101
34 175 14 74 42 218 61 319 35 181 35 187 35 448 0 162 -4 272 -10 284 -13 24
-61 49 -95 49 -39 0 -80 -25 -104 -63 -21 -35 -36 -94 -136 -532 -20 -88 -43
-187 -50 -220 -8 -33 -17 -78 -20 -100 -14 -87 -37 -128 -51 -92 -2 7 7 62 21
122 14 61 39 171 56 245 79 352 133 569 151 607 43 92 150 176 235 185 15 2
30 6 33 10 3 3 17 9 31 13 29 7 32 4 107 -136 27 -50 39 -83 35 -97 -3 -12 -9
-22 -13 -22 -4 0 5 -14 21 -31 43 -46 90 -45 133 3 25 27 30 38 20 42 -24 9
-16 41 36 149 l50 105 30 -11 c17 -6 30 -15 30 -20z m-366 -1917 l26 -10 0
-338 c0 -186 -3 -342 -7 -345 -3 -4 -5 -36 -4 -72 2 -57 0 -67 -23 -90 -31
-31 -57 -32 -93 -1 l-28 24 -3 416 -3 416 41 0 c25 0 40 -5 40 -12 0 -7 5 -5
11 5 12 20 10 20 43 7z m347 -1 l59 2 0 -413 c-1 -309 -4 -417 -13 -429 -33
-43 -94 -46 -122 -6 -9 12 -15 44 -15 74 0 48 2 53 23 53 22 0 21 1 -3 13
l-25 13 -3 344 c-2 344 0 372 31 353 6 -3 36 -5 68 -4z"/>
</g>
</svg>
