<?xml version="1.0" standalone="no"?>
<!DOCTYPE svg PUBLIC "-//W3C//DTD SVG 20010904//EN"
 "http://www.w3.org/TR/2001/REC-SVG-20010904/DTD/svg10.dtd">
<svg version="1.0" xmlns="http://www.w3.org/2000/svg"
 width="500.000000pt" height="500.000000pt" viewBox="0 0 500.000000 500.000000"
 preserveAspectRatio="xMidYMid meet">
<metadata>
Created by potrace 1.16, written by Peter Selinger 2001-2019
</metadata>
<g transform="translate(0.000000,500.000000) scale(0.100000,-0.100000)"
fill="#000000" stroke="none">
<path d="M2404 3352 c-28 -10 -63 -26 -77 -35 -33 -21 -72 -73 -84 -112 -8
-26 -19 -32 -84 -53 -182 -56 -487 -124 -684 -152 -292 -41 -299 -43 -351 -91
l-30 -29 -70 28 c-38 16 -100 39 -137 52 -38 13 -79 35 -93 48 -32 33 -32 87
1 136 28 41 27 41 -41 21 -75 -22 -124 -82 -124 -150 0 -87 33 -113 247 -196
l183 -72 0 -226 c0 -209 -2 -228 -20 -251 -23 -30 -26 -87 -5 -116 13 -19 12
-23 -11 -45 -53 -49 -55 -60 -55 -339 0 -166 4 -267 11 -280 7 -14 21 -20 43
-20 63 0 62 -6 65 279 3 240 5 260 22 276 18 16 21 17 45 1 l25 -16 0 -264 c0
-262 0 -264 -22 -281 -23 -16 -23 -16 3 -2 17 10 40 14 65 10 32 -4 43 -1 59
17 18 20 19 37 19 278 0 280 -3 296 -60 341 -26 20 -26 21 -10 55 22 46 20 67
-9 110 -24 36 -25 41 -25 221 0 102 2 185 5 185 5 0 245 -95 290 -115 17 -7
41 -17 54 -20 22 -7 23 -10 17 -64 -29 -265 -31 -473 -6 -523 29 -56 87 -101
205 -159 164 -80 255 -134 370 -223 40 -32 53 -43 165 -140 86 -76 129 -97
195 -97 67 0 110 21 201 103 198 176 299 244 547 367 132 65 161 89 192 164
17 42 20 224 5 347 -5 41 -12 105 -16 142 l-7 68 39 16 c21 9 53 22 69 30 17
7 100 41 185 75 85 33 173 69 195 79 22 10 117 48 210 85 129 51 178 75 202
100 87 91 47 208 -88 254 -33 11 -59 17 -59 14 0 -3 9 -18 20 -34 36 -49 43
-84 26 -117 -18 -34 -25 -38 -256 -131 -354 -142 -678 -276 -1145 -474 -143
-60 -279 -112 -303 -115 -55 -6 -80 3 -547 203 -209 90 -454 193 -545 230 -91
37 -169 70 -174 75 -4 5 14 11 40 14 331 42 732 124 922 191 l66 23 26 -25
c51 -51 98 -68 191 -68 81 0 89 2 145 36 72 45 106 98 106 168 0 26 -7 61 -15
78 -25 48 -91 100 -148 117 -67 20 -111 20 -175 -2z m156 -137 c85 -44 25
-133 -82 -123 -57 6 -88 30 -88 70 0 56 102 88 170 53z m714 -855 c8 -47 18
-124 22 -172 6 -73 4 -88 -8 -88 -8 0 -54 -16 -104 -36 -240 -97 -399 -200
-571 -370 -68 -67 -123 -119 -123 -115 0 18 -215 219 -295 276 -101 73 -278
166 -405 215 -47 18 -89 37 -94 41 -6 5 -5 52 3 121 17 151 31 218 47 218 7 0
59 -20 116 -44 558 -237 591 -249 648 -244 38 4 335 123 670 269 36 15 68 25
72 21 4 -4 14 -46 22 -92z"/>
</g>
</svg>
