<?xml version="1.0" standalone="no"?>
<!DOCTYPE svg PUBLIC "-//W3C//DTD SVG 20010904//EN"
 "http://www.w3.org/TR/2001/REC-SVG-20010904/DTD/svg10.dtd">
<svg version="1.0" xmlns="http://www.w3.org/2000/svg"
 width="500.000000pt" height="500.000000pt" viewBox="0 0 500.000000 500.000000"
 preserveAspectRatio="xMidYMid meet">

<g transform="translate(0.000000,500.000000) scale(0.100000,-0.100000)"
fill="#000000" stroke="none">
<path d="M2313 4025 c-229 -30 -498 -125 -679 -240 -142 -90 -333 -281 -433
-432 -99 -151 -188 -346 -227 -501 -68 -268 -47 -602 58 -897 l21 -60 -55 -80
c-81 -118 -82 -122 -63 -151 l15 -24 208 0 c204 0 322 -11 476 -45 38 -8 70
-16 72 -17 1 -2 -193 -4 -432 -4 -391 -1 -436 -3 -453 -18 -10 -9 -40 -55 -66
-101 -30 -54 -57 -90 -74 -98 -23 -11 -26 -19 -29 -65 -2 -31 2 -60 9 -68 10
-12 127 -14 769 -14 l757 0 7 -41 c9 -57 40 -113 78 -143 51 -38 111 -48 260
-44 113 3 139 7 175 26 59 31 94 80 102 144 l6 53 763 5 c846 6 782 0 782 73
0 47 -15 77 -38 77 -12 0 -37 33 -76 99 -32 55 -65 103 -75 106 -9 4 -205 9
-436 13 -390 5 -415 6 -350 19 171 33 278 43 471 43 142 0 203 3 212 12 25 25
12 65 -49 156 l-62 91 32 95 c98 298 113 610 40 885 -40 150 -139 363 -231
495 -56 80 -184 226 -236 268 -202 166 -275 210 -490 292 -245 93 -503 124
-759 91z m402 -115 c303 -38 575 -167 800 -383 221 -212 365 -482 422 -791 23
-124 23 -351 -1 -477 l-18 -96 -216 -17 c-120 -9 -238 -16 -264 -16 l-48 0 0
43 c0 23 -3 93 -7 156 l-6 113 53 -40 c66 -50 139 -73 227 -73 77 0 136 18
204 62 40 25 79 66 79 82 0 3 -35 7 -77 9 -83 5 -164 32 -241 82 -50 31 -51
41 -3 25 41 -15 153 -6 201 15 33 15 80 49 80 59 0 2 -25 9 -56 16 -71 16
-167 59 -236 105 l-53 36 75 0 c54 0 88 6 120 21 48 22 100 65 100 84 0 8 -35
17 -90 24 -69 10 -109 22 -172 54 l-83 41 65 6 c68 7 100 19 138 53 30 28 28
37 -10 37 -18 1 -56 9 -84 18 -51 18 -164 81 -164 92 0 3 21 4 47 2 37 -3 56
2 82 20 19 13 36 28 38 33 2 6 -20 18 -47 28 -83 30 -140 92 -216 237 -14 28
-29 50 -33 50 -3 0 -26 -39 -51 -87 -25 -48 -56 -100 -69 -115 -28 -34 -96
-76 -146 -89 -43 -12 -41 -25 6 -57 28 -20 44 -23 87 -20 28 3 52 3 52 1 0 -2
-24 -19 -54 -38 -60 -38 -160 -75 -206 -75 -36 0 -38 -9 -7 -38 35 -33 97 -55
155 -54 28 0 52 -1 52 -2 0 -2 -34 -20 -75 -40 -49 -24 -107 -43 -163 -53 -48
-9 -91 -19 -96 -24 -15 -13 32 -66 79 -89 38 -19 59 -21 129 -19 46 2 82 1 79
-3 -2 -5 -9 -8 -14 -8 -6 0 -25 -11 -42 -24 -65 -48 -231 -116 -285 -116 -21
0 -23 -2 -11 -16 7 -8 36 -27 63 -42 43 -21 65 -26 136 -26 47 -1 96 3 110 7
l25 8 -25 -22 c-60 -52 -182 -95 -285 -102 -45 -3 -59 -7 -57 -18 6 -25 35
-50 97 -85 137 -76 320 -58 428 42 15 14 27 21 28 17 2 -28 -2 -179 -7 -234
l-6 -66 -172 -2 c-103 -1 -196 3 -233 10 -45 9 -85 10 -150 3 -90 -10 -144 -6
-198 17 -16 7 -34 13 -40 14 -15 1 -52 24 -40 25 33 1 -136 90 -171 90 -17 0
-35 11 -52 32 -65 77 -148 163 -159 166 -22 6 -15 -35 17 -98 17 -33 30 -63
30 -67 0 -10 -68 63 -144 156 -34 40 -72 86 -85 102 -14 17 -26 47 -29 74 -2
25 -8 48 -12 50 -11 7 -100 -91 -100 -111 0 -9 8 -28 19 -42 51 -74 35 -66
-50 23 l-94 98 -5 -49 -5 -49 -38 118 c-21 64 -42 117 -47 117 -5 0 -52 -47
-106 -104 -53 -58 -104 -108 -112 -111 -22 -8 -46 18 -87 96 -20 38 -40 69
-44 69 -4 0 -22 -16 -40 -36 -18 -19 -35 -33 -37 -31 -7 6 23 144 52 245 55
189 196 414 358 572 119 116 122 118 252 198 198 122 422 193 669 214 54 5
239 -2 320 -12z m-1158 -1700 c72 -25 114 -25 181 0 61 23 121 25 177 5 35
-13 50 -13 125 1 102 19 151 14 267 -28 71 -26 82 -33 67 -41 -23 -13 -443
-10 -534 3 -70 11 -100 9 -200 -14 -58 -14 -83 -14 -240 0 -233 21 -238 23
-130 48 36 8 88 21 115 30 69 20 106 19 172 -4z m723 -145 c120 -56 203 -60
329 -16 105 37 168 39 261 11 87 -27 154 -25 267 6 88 24 122 23 105 -1 -4 -6
-52 -28 -107 -50 -122 -48 -176 -52 -345 -27 -120 17 -127 17 -173 0 -33 -12
-75 -18 -138 -18 -79 0 -90 -2 -87 -17 4 -20 121 -72 164 -73 17 0 57 9 89 20
70 24 129 25 180 4 l37 -15 -76 -45 -76 -46 -127 4 c-119 3 -132 5 -188 33
-46 23 -75 30 -127 32 -37 1 -79 9 -95 17 -15 8 -23 15 -16 16 6 0 24 5 38 10
23 9 25 13 14 26 -30 36 -72 48 -174 49 -96 1 -103 2 -185 42 l-85 41 90 1
c65 1 107 7 145 21 86 32 174 24 280 -25z m-1015 -11 c172 -15 436 -79 595
-144 238 -96 386 -193 495 -325 37 -46 37 -47 9 -29 -16 10 -42 28 -59 40
-242 177 -687 304 -1063 304 l-98 0 0 58 c1 31 -3 70 -7 85 -7 27 -7 28 25 23
18 -3 65 -8 103 -12z m2605 -15 c-7 -11 -10 -47 -8 -80 l3 -59 -95 0 c-207 0
-443 -40 -671 -114 -155 -50 -257 -99 -378 -180 -46 -31 -85 -55 -88 -53 -2 3
41 49 95 103 88 88 113 106 218 161 161 84 296 136 445 172 199 48 315 67 422
70 66 1 67 0 57 -20z m-2315 -259 c264 -39 584 -160 748 -283 80 -61 177 -170
155 -175 -9 -2 -48 22 -88 52 -106 80 -239 149 -375 196 -263 90 -487 134
-781 153 l-187 12 27 33 28 32 171 0 c117 0 214 -7 302 -20z m2399 -12 l25
-33 -177 -11 c-266 -17 -461 -53 -701 -129 -76 -24 -168 -56 -203 -70 -81 -35
-217 -116 -274 -166 -49 -42 -93 -54 -75 -21 6 10 51 57 100 105 80 76 106 93
223 151 205 100 407 164 598 191 52 7 177 13 277 14 l182 1 25 -32z m-1372
-18 c51 -14 56 -28 22 -55 -21 -17 -42 -23 -77 -23 -26 -1 -56 -3 -65 -6 -21
-7 -78 46 -68 63 17 27 124 38 188 21z m-700 -235 c40 -9 111 -29 158 -46 87
-32 290 -136 290 -150 0 -4 -28 -1 -62 8 -129 30 -346 72 -443 85 -105 14
-654 17 -892 4 -68 -3 -123 -4 -123 -1 0 3 10 21 23 40 19 29 29 35 72 40 304
36 846 47 977 20z m2028 -1 c255 -22 241 -19 268 -60 13 -20 22 -37 20 -39 -2
-2 -131 1 -288 7 -513 18 -808 -5 -1126 -88 -33 -9 -71 -14 -84 -12 -19 2 -1
15 81 60 108 59 276 121 370 137 95 15 559 13 759 -5z m-2002 -218 c62 -7 116
-17 119 -20 4 -3 -278 -6 -625 -6 -348 0 -632 3 -632 6 0 3 5 15 11 26 11 21
12 21 513 15 337 -4 538 -11 614 -21z m2322 3 c7 -11 10 -22 8 -24 -4 -5 -454
-8 -888 -6 -387 2 -440 10 -199 31 180 15 222 16 676 18 388 2 392 2 403 -19z
m-1510 -104 c0 -35 -6 -52 -29 -77 l-29 -33 -137 -3 c-92 -2 -147 0 -166 9
-42 17 -69 59 -69 108 l0 41 215 0 215 0 0 -45z"/>
</g>
</svg>
