<?xml version="1.0" standalone="no"?>
<!DOCTYPE svg PUBLIC "-//W3C//DTD SVG 20010904//EN"
 "http://www.w3.org/TR/2001/REC-SVG-20010904/DTD/svg10.dtd">
<svg version="1.0" xmlns="http://www.w3.org/2000/svg"
 width="500.000000pt" height="500.000000pt" viewBox="0 0 500.000000 500.000000"
 preserveAspectRatio="xMidYMid meet">
<metadata>
Created by potrace 1.16, written by Peter Selinger 2001-2019
</metadata>
<g transform="translate(0.000000,500.000000) scale(0.100000,-0.100000)"
fill="#000000" stroke="none">
<path d="M1400 4240 c-20 -20 -20 -40 -20 -1665 0 -1632 0 -1645 20 -1665 20
-20 33 -20 1159 -20 1136 0 1138 0 1165 21 l26 20 0 1513 0 1512 -153 152
-154 152 -1012 0 c-994 0 -1012 -1 -1031 -20z m1345 -91 c22 -6 56 -28 77 -49
l38 -38 0 -239 c0 -200 3 -242 16 -261 15 -22 19 -22 249 -22 138 0 245 -4
261 -10 47 -18 210 -176 236 -228 l23 -47 0 -1135 c0 -1075 -1 -1135 -17
-1134 -10 0 -497 1 -1083 2 l-1065 2 0 1585 0 1585 613 0 c416 0 625 -4 652
-11z m781 -105 l124 -117 0 -243 c0 -134 -3 -243 -7 -242 -5 0 -168 162 -363
360 l-355 358 239 0 238 0 124 -116z m-432 -196 c62 -62 132 -134 156 -160
l43 -48 -162 0 -161 0 0 160 c0 88 2 160 5 160 3 0 57 -51 119 -112z"/>
<path d="M1712 3884 c-25 -18 -29 -56 -7 -74 21 -18 721 -16 742 2 21 17 12
61 -17 75 -19 9 -111 13 -360 13 -288 0 -339 -2 -358 -16z"/>
<path d="M1702 3648 c-19 -19 -14 -55 10 -72 19 -14 62 -16 273 -16 211 0 254
2 273 16 24 17 29 53 10 72 -17 17 -549 17 -566 0z"/>
<path d="M1799 3404 c-7 -20 -6 -32 6 -50 15 -24 16 -24 215 -24 214 0 230 4
230 54 0 44 -13 46 -232 46 l-208 0 -11 -26z"/>
<path d="M1800 3190 c-24 -24 -25 -38 -4 -68 15 -21 20 -22 212 -22 215 0 242
6 242 55 0 49 -27 55 -237 55 -180 0 -194 -1 -213 -20z"/>
<path d="M2892 3168 c-7 -7 -12 -24 -12 -38 0 -48 10 -50 216 -50 162 0 195 3
208 16 20 19 20 34 0 62 -15 21 -20 22 -208 22 -136 0 -195 -3 -204 -12z"/>
<path d="M1807 2972 c-23 -25 -22 -69 2 -82 12 -6 98 -10 210 -10 178 0 192 1
211 20 11 11 20 27 20 35 0 8 -9 24 -20 35 -19 19 -33 20 -213 20 -175 0 -196
-2 -210 -18z"/>
<path d="M2910 2963 c-34 -13 -41 -60 -12 -86 27 -25 362 -25 386 -1 16 16 20
27 16 54 -4 35 -30 40 -204 39 -94 0 -178 -3 -186 -6z"/>
<path d="M1806 2747 c-21 -15 -25 -62 -7 -80 8 -8 75 -13 207 -15 215 -4 244
3 244 53 0 51 -15 55 -229 55 -148 0 -202 -3 -215 -13z"/>
<path d="M2890 2731 c-14 -27 -13 -47 6 -65 13 -13 46 -16 204 -16 158 0 191
3 204 16 19 18 20 38 6 65 -10 18 -23 19 -210 19 -187 0 -200 -1 -210 -19z"/>
<path d="M1707 2392 c-22 -24 -21 -45 1 -65 16 -15 45 -17 196 -17 103 0 185
4 197 10 12 7 19 21 19 39 0 44 -29 51 -224 51 -155 0 -175 -2 -189 -18z"/>
<path d="M2267 2392 c-38 -42 -7 -92 56 -92 20 0 52 -8 72 -17 31 -15 35 -21
34 -52 0 -25 -11 -50 -35 -81 -55 -72 -59 -85 -40 -115 11 -17 25 -25 45 -25
38 0 54 22 48 62 -4 27 3 57 18 75 1 2 19 -6 40 -17 49 -25 61 -25 108 -1 l38
19 15 -22 c8 -13 12 -31 8 -40 -19 -49 34 -99 79 -75 44 23 50 66 15 101 -43
42 -68 89 -68 123 0 30 5 37 36 50 20 8 51 15 69 15 38 0 65 26 65 63 0 47
-55 62 -92 25 -13 -13 -42 -30 -65 -39 -37 -15 -44 -15 -54 -2 -42 50 -131 54
-178 9 -27 -26 -28 -26 -67 -10 -21 9 -49 27 -61 40 -26 29 -64 31 -86 6z"/>
<path d="M3030 2390 c-23 -23 -24 -33 -10 -61 10 -18 23 -19 191 -19 105 0
188 4 200 10 22 12 26 59 7 78 -8 8 -65 12 -190 12 -165 0 -179 -1 -198 -20z"/>
<path d="M1702 2178 c-7 -7 -12 -21 -12 -33 0 -43 13 -45 240 -45 155 0 219 3
228 12 15 15 15 51 0 66 -17 17 -439 17 -456 0z"/>
<path d="M2972 2178 c-15 -15 -15 -51 0 -66 9 -9 72 -12 224 -12 231 0 239 2
232 57 l-3 28 -220 3 c-163 2 -224 -1 -233 -10z"/>
<path d="M1792 1908 c-19 -19 -15 -66 7 -78 25 -13 1489 -14 1524 -1 32 13 41
39 22 67 l-15 24 -763 0 c-580 0 -766 -3 -775 -12z"/>
<path d="M1750 1713 c-57 -7 -76 -47 -40 -83 20 -20 33 -20 848 -20 902 0 872
-2 872 55 0 57 28 55 -845 53 -440 0 -816 -3 -835 -5z"/>
<path d="M1786 1378 c-20 -29 -20 -34 4 -58 20 -20 33 -20 771 -20 498 0 757
3 770 10 22 12 26 59 7 78 -9 9 -195 12 -774 12 l-763 0 -15 -22z"/>
</g>
</svg>
